<?xml version="1.0" standalone="no"?>
<!DOCTYPE svg PUBLIC "-//W3C//DTD SVG 20010904//EN"
 "http://www.w3.org/TR/2001/REC-SVG-20010904/DTD/svg10.dtd">
<svg version="1.0" xmlns="http://www.w3.org/2000/svg"
 width="970.000000pt" height="970.000000pt" viewBox="0 0 970.000000 970.000000"
 preserveAspectRatio="xMidYMid meet">
<metadata>
Created by potrace 1.11, written by Peter Selinger 2001-2013
</metadata>
<g transform="translate(0.000000,970.000000) scale(0.100000,-0.100000)"
fill="#000000" stroke="none">
<path d="M4648 9605 c-2 -2 -48 -6 -103 -9 -192 -12 -273 -20 -330 -31 -16 -4
-43 -8 -60 -10 -96 -11 -170 -22 -170 -25 0 -2 -24 -7 -70 -14 -23 -4 -52 -9
-65 -12 -14 -3 -34 -7 -45 -8 -11 -1 -25 -4 -30 -8 -6 -3 -28 -10 -50 -14 -49
-10 -47 -9 -65 -17 -8 -4 -26 -9 -40 -11 -47 -9 -86 -19 -110 -29 -8 -3 -35
-11 -60 -17 -25 -7 -72 -21 -105 -32 -33 -11 -64 -21 -70 -22 -5 -1 -20 -8
-32 -14 -13 -7 -23 -11 -23 -8 0 3 -25 -6 -55 -19 -30 -14 -55 -23 -55 -20 0
2 -28 -8 -62 -24 -35 -15 -67 -29 -73 -31 -5 -1 -26 -10 -45 -20 -19 -10 -38
-18 -43 -19 -4 0 -51 -22 -105 -48 -53 -25 -101 -48 -107 -49 -5 -1 -55 -27
-110 -59 -54 -31 -104 -57 -109 -58 -6 -1 -16 -7 -23 -13 -7 -7 -64 -42 -128
-79 -63 -38 -115 -72 -115 -77 0 -5 -4 -6 -10 -3 -5 3 -10 1 -10 -5 0 -6 -4
-8 -10 -5 -5 3 -10 2 -10 -2 0 -5 -18 -19 -40 -33 -22 -14 -40 -27 -40 -31 0
-3 -19 -16 -41 -29 -23 -12 -49 -29 -58 -37 -13 -12 -80 -63 -116 -91 -5 -4
-37 -30 -70 -57 -32 -28 -68 -57 -79 -65 -72 -57 -375 -354 -478 -470 -67 -75
-63 -70 -124 -147 -26 -32 -53 -65 -60 -73 -38 -43 -74 -91 -108 -145 -22 -33
-44 -64 -50 -70 -7 -5 -22 -28 -36 -50 -13 -22 -31 -49 -41 -60 -26 -29 -289
-486 -289 -502 0 -7 -13 -35 -30 -61 -16 -27 -30 -54 -30 -60 0 -6 -16 -43
-36 -82 -19 -39 -37 -80 -39 -90 -2 -10 -10 -29 -19 -42 -8 -13 -15 -27 -14
-31 0 -8 -16 -53 -37 -102 -14 -31 -71 -194 -81 -230 -8 -31 -11 -39 -16 -55
-18 -47 -84 -300 -94 -354 -3 -17 -9 -49 -15 -71 -5 -22 -12 -51 -14 -65 -3
-14 -8 -41 -12 -60 -4 -19 -8 -42 -9 -50 -6 -56 -16 -115 -19 -119 -2 -4 -6
-35 -10 -71 -4 -36 -8 -81 -10 -100 -5 -39 -10 -112 -20 -245 -9 -109 -8 -439
0 -544 11 -138 27 -298 40 -391 4 -30 8 -68 10 -83 1 -15 7 -33 13 -39 11 -11
10 25 -3 92 -2 14 -7 61 -10 105 -4 44 -9 98 -11 120 -9 72 -12 558 -4 635 4
41 11 117 14 168 4 51 10 103 12 115 3 12 7 42 10 67 5 40 34 217 49 293 3 15
7 37 9 50 3 12 14 60 26 107 12 47 26 105 31 130 5 25 12 52 16 60 8 19 8 21
28 95 9 33 17 65 19 70 2 6 4 13 5 18 0 4 8 21 16 37 9 17 12 30 8 30 -4 0 -2
5 5 12 7 7 12 22 12 34 0 13 4 25 8 28 5 3 19 38 32 78 13 40 30 82 37 93 7
11 13 25 13 33 0 7 16 48 37 90 20 42 47 102 61 132 14 30 30 64 35 75 119
232 157 301 197 360 26 39 64 98 84 133 21 34 41 62 45 62 4 0 14 15 23 33 9
17 23 41 32 52 9 11 34 45 56 75 45 61 75 100 105 134 11 13 27 33 35 45 8 13
24 33 35 45 11 12 43 48 70 81 101 117 420 429 522 510 14 11 44 37 67 57 22
21 49 40 59 43 9 4 17 10 17 15 0 5 14 17 31 25 16 9 38 24 48 33 30 28 61 52
61 47 0 -3 8 2 18 10 28 23 83 61 147 101 33 21 63 43 67 48 4 6 8 7 8 3 0 -5
7 -2 15 7 20 19 185 117 251 148 27 13 52 27 55 31 3 5 8 7 10 6 2 -2 30 12
62 30 32 18 63 34 70 35 7 2 50 21 97 43 109 50 291 126 298 124 1 -1 16 6 32
14 17 9 30 13 30 9 0 -4 6 -2 13 3 6 6 26 14 42 18 46 12 45 12 125 40 41 15
83 28 93 31 65 15 77 19 97 27 8 4 26 9 40 11 14 3 36 8 50 11 14 3 32 8 40
10 8 2 15 4 15 5 0 2 14 5 60 13 42 8 83 17 133 28 49 11 108 21 137 24 11 1
34 4 50 8 59 12 204 29 280 31 22 1 45 4 50 7 38 20 650 17 830 -5 22 -3 67
-7 100 -11 130 -12 147 -15 225 -31 8 -2 35 -6 59 -9 24 -2 51 -7 61 -10 10
-3 28 -8 39 -10 12 -3 31 -7 43 -10 12 -2 40 -7 62 -11 22 -3 45 -9 51 -12 5
-4 15 -7 20 -8 32 -5 73 -14 95 -19 14 -3 32 -8 40 -10 8 -2 15 -4 15 -5 0 -1
6 -3 45 -13 53 -14 76 -20 85 -26 6 -3 15 -6 20 -8 43 -9 55 -13 88 -27 21 -8
40 -15 42 -15 19 -1 64 -17 82 -28 12 -8 24 -14 28 -14 13 3 62 -13 83 -27 12
-8 22 -11 22 -8 0 4 13 0 30 -9 16 -8 32 -15 35 -15 3 0 19 -7 35 -15 16 -8
33 -16 37 -16 5 -1 26 -11 48 -22 22 -11 46 -22 53 -23 7 -1 29 -12 50 -24 20
-12 44 -24 54 -25 9 -2 55 -25 100 -52 46 -26 90 -49 98 -51 26 -6 170 -94
170 -104 0 -5 4 -7 9 -4 5 4 11 2 13 -2 1 -5 37 -28 78 -52 41 -24 82 -49 90
-57 8 -7 40 -31 70 -52 109 -78 254 -195 333 -270 216 -204 373 -368 516 -541
11 -14 26 -31 32 -38 37 -44 181 -239 209 -283 19 -30 37 -56 40 -59 12 -11
60 -90 60 -99 0 -5 4 -11 8 -13 5 -1 25 -31 45 -66 21 -35 33 -60 27 -57 -16
10 -11 -21 5 -35 13 -11 15 -10 9 6 -4 14 -3 15 4 5 5 -7 8 -21 5 -30 -2 -10
5 -28 17 -42 21 -24 21 -24 10 -1 -7 13 -9 26 -7 29 6 5 20 -34 21 -57 1 -22
58 -120 66 -115 11 7 21 -22 14 -40 -4 -9 0 -15 9 -15 8 0 18 -7 21 -16 3 -8
2 -12 -4 -9 -6 3 -10 1 -10 -5 0 -6 7 -13 15 -16 8 -4 12 -10 9 -15 -3 -5 0
-9 6 -9 6 0 9 -4 6 -9 -8 -13 4 -42 15 -35 5 3 6 -1 3 -9 -3 -8 1 -21 8 -28 7
-8 14 -21 16 -29 2 -8 8 -17 13 -18 5 -2 7 -8 3 -13 -3 -5 0 -9 6 -9 6 0 8 -5
5 -10 -3 -6 1 -17 9 -25 8 -9 13 -22 10 -30 -4 -8 -2 -15 2 -15 5 0 15 -15 22
-32 8 -18 17 -42 22 -53 11 -26 51 -137 55 -150 2 -11 12 -39 26 -73 14 -36
118 -423 125 -467 3 -22 8 -43 10 -46 9 -15 59 -363 69 -479 4 -41 9 -91 11
-110 6 -46 6 -466 -1 -555 -11 -164 -15 -211 -20 -235 -3 -14 -7 -54 -10 -89
-3 -35 -9 -80 -14 -100 -5 -20 -13 -61 -16 -91 -4 -30 -10 -71 -15 -90 -5 -19
-16 -66 -24 -105 -33 -148 -66 -278 -75 -290 -5 -5 -14 -35 -21 -65 -7 -30
-21 -74 -31 -97 -10 -24 -16 -43 -13 -43 2 0 -2 -13 -11 -30 -9 -16 -13 -30
-10 -30 4 0 -1 -10 -9 -22 -9 -12 -16 -28 -16 -34 0 -7 -10 -34 -22 -61 -12
-26 -23 -52 -23 -58 -1 -5 -10 -28 -19 -50 -10 -22 -24 -53 -31 -70 -26 -65
-80 -173 -118 -240 -22 -38 -40 -75 -40 -82 0 -7 -6 -14 -14 -17 -7 -3 -13
-10 -13 -15 0 -14 -106 -187 -148 -241 -19 -25 -38 -44 -43 -42 -5 1 -9 -4 -9
-11 0 -8 -27 -42 -60 -77 -33 -35 -60 -67 -60 -71 0 -5 -7 -5 -17 -2 -11 4
-14 3 -9 -5 4 -7 2 -12 -4 -12 -6 0 -8 -4 -5 -10 6 -9 -8 -14 -27 -11 -5 0 -8
-6 -8 -15 0 -10 -5 -14 -16 -10 -9 3 -12 2 -9 -5 4 -6 -2 -13 -14 -16 -11 -3
-18 -9 -15 -14 3 -5 1 -9 -4 -9 -5 0 -27 -18 -50 -40 -23 -21 -42 -37 -42 -34
0 3 -11 -7 -25 -21 -14 -14 -32 -25 -40 -25 -8 0 -15 -5 -15 -11 0 -5 -13 -15
-30 -20 -16 -6 -30 -14 -30 -17 0 -4 -20 -18 -45 -31 -25 -13 -45 -28 -45 -33
0 -5 -5 -6 -11 -3 -5 4 -18 0 -27 -8 -9 -9 -28 -20 -42 -26 -14 -6 -32 -15
-40 -20 -8 -5 -42 -22 -75 -38 -33 -15 -62 -30 -65 -34 -3 -3 -75 -29 -160
-57 -160 -53 -292 -83 -440 -102 -109 -13 -401 -13 -510 0 -395 50 -792 215
-1100 459 -88 70 -259 239 -333 329 -254 311 -426 716 -477 1122 -13 109 -13
400 0 510 11 89 35 224 50 275 34 121 96 303 107 316 8 9 13 20 12 25 -4 16
42 102 86 159 54 72 113 183 190 360 10 22 23 51 30 65 7 14 14 28 14 33 2 22
15 63 23 73 5 7 8 16 6 20 -1 5 5 32 14 59 9 28 19 64 22 82 2 17 7 36 10 41
3 5 8 27 11 48 3 22 9 53 12 69 4 17 8 41 9 55 2 14 5 50 8 80 16 156 13 364
-8 515 -3 22 -8 60 -12 85 -3 25 -13 68 -21 97 -8 29 -16 64 -19 79 -3 15 -7
32 -10 36 -3 5 -8 23 -11 41 -6 36 -36 123 -65 187 -11 25 -24 54 -28 65 -4
11 -19 44 -34 73 -14 30 -26 60 -26 68 0 8 -4 14 -9 14 -5 0 -14 15 -22 33 -7
17 -15 34 -18 37 -14 12 -51 70 -51 79 0 9 -107 155 -145 198 -5 6 -20 24 -32
40 -12 16 -33 41 -47 56 -13 14 -21 28 -18 31 3 3 1 6 -5 6 -6 0 -37 26 -70
58 -83 79 -153 142 -153 137 0 -3 -8 3 -19 13 -10 9 -31 26 -45 37 -15 11 -33
26 -41 33 -7 6 -18 12 -24 12 -6 0 -11 4 -11 9 0 5 -24 23 -52 38 -68 38 -140
79 -200 114 -27 16 -53 29 -59 29 -5 0 -24 8 -42 17 -18 9 -35 16 -39 15 -5
-1 -8 3 -8 9 0 5 -4 8 -9 4 -5 -3 -12 -1 -16 5 -3 5 -15 10 -26 10 -10 0 -19
4 -19 8 0 5 -6 9 -12 10 -23 2 -43 8 -63 19 -11 6 -23 11 -28 11 -4 1 -33 9
-65 18 -31 10 -65 18 -74 17 -10 0 -18 3 -18 6 0 4 -10 7 -22 8 -13 1 -33 3
-44 6 -12 3 -38 8 -59 11 -20 4 -40 8 -44 10 -14 9 -218 24 -351 27 -104 2
-278 -11 -350 -27 -31 -6 -115 -21 -155 -28 -57 -9 -249 -70 -270 -85 -5 -4
-30 -14 -55 -21 -25 -8 -55 -20 -66 -27 -12 -8 -30 -15 -40 -17 -25 -5 -316
-173 -326 -189 -4 -7 -8 -9 -8 -4 0 4 -8 0 -17 -9 -10 -8 -45 -36 -78 -62 -82
-64 -84 -65 -181 -162 -97 -97 -94 -94 -159 -175 -26 -33 -51 -62 -54 -65 -3
-3 -18 -23 -33 -45 -15 -22 -41 -58 -57 -80 -69 -92 -125 -181 -231 -365 -61
-107 -123 -212 -136 -232 -13 -21 -22 -38 -19 -38 3 0 -10 -29 -30 -65 -20
-36 -34 -65 -31 -65 3 0 -8 -26 -26 -57 -18 -32 -32 -59 -30 -60 2 -3 -24 -66
-45 -105 -7 -15 -13 -29 -13 -30 1 -2 -1 -10 -4 -18 -21 -61 -68 -207 -70
-215 -10 -43 -29 -102 -36 -110 -4 -5 -8 -17 -8 -25 -1 -26 -13 -72 -23 -92
-5 -10 -8 -18 -5 -18 2 0 -2 -24 -10 -52 -8 -29 -17 -66 -20 -83 -3 -16 -11
-59 -19 -95 -7 -36 -17 -87 -21 -115 -4 -27 -8 -54 -10 -60 -5 -22 -14 -84
-24 -180 -6 -55 -14 -127 -18 -160 -3 -33 -6 -202 -6 -375 -1 -308 4 -401 29
-585 3 -22 8 -58 11 -80 3 -22 7 -49 9 -60 2 -11 6 -37 9 -58 3 -22 13 -71 21
-110 9 -40 20 -94 25 -120 14 -68 88 -338 117 -427 74 -223 149 -398 234 -545
16 -27 35 -63 43 -80 7 -16 23 -41 35 -54 11 -13 21 -32 21 -41 0 -10 7 -23
16 -31 8 -7 24 -30 36 -52 11 -22 44 -72 74 -113 30 -40 54 -78 54 -83 0 -6 5
-11 10 -11 6 0 9 -3 8 -7 -3 -7 38 -67 67 -99 6 -6 17 -21 25 -34 25 -36 63
-82 111 -135 25 -27 57 -63 70 -79 80 -98 402 -426 419 -426 5 0 17 -11 26
-25 9 -14 20 -25 24 -25 4 0 21 -13 38 -28 16 -16 45 -39 62 -53 18 -13 41
-32 51 -42 11 -9 23 -17 28 -17 6 0 17 -10 25 -22 9 -12 16 -19 16 -15 0 4 9
-1 19 -11 37 -33 56 -47 56 -42 0 5 19 -9 56 -42 10 -10 21 -18 24 -18 7 1 52
-31 76 -53 10 -9 19 -14 19 -10 0 3 10 -3 23 -14 12 -11 72 -49 132 -84 61
-34 113 -68 117 -73 5 -7 8 -7 8 -1 0 6 7 1 15 -9 8 -11 15 -17 15 -13 0 3 28
-10 63 -30 34 -20 68 -36 75 -36 6 0 12 -4 12 -9 0 -4 7 -8 15 -8 8 0 15 -5
15 -12 0 -6 3 -9 6 -5 4 3 25 -4 48 -15 22 -12 44 -21 49 -20 4 1 7 -2 7 -8 0
-6 3 -9 8 -8 4 0 30 -9 57 -21 28 -12 64 -28 80 -35 78 -34 106 -46 110 -46 3
0 25 -9 49 -20 24 -10 47 -16 50 -13 3 4 6 1 6 -5 0 -7 3 -11 8 -10 14 3 62
-14 62 -22 0 -5 8 -7 18 -6 9 2 36 -5 60 -15 23 -10 45 -18 47 -18 3 0 31 -7
63 -17 31 -10 63 -19 70 -21 6 -1 18 -4 25 -6 6 -2 32 -9 57 -16 25 -7 53 -15
62 -17 10 -2 28 -7 41 -10 19 -4 61 -13 92 -18 6 -1 15 -4 20 -8 10 -6 94 -21
125 -23 8 0 20 -3 25 -7 6 -3 37 -9 70 -13 33 -3 76 -9 95 -12 19 -3 46 -7 60
-8 14 -2 25 -4 25 -5 0 -1 18 -3 40 -5 22 -2 58 -6 80 -9 151 -19 611 -26 770
-12 44 4 109 10 145 12 90 6 122 10 145 17 11 3 43 8 70 12 28 3 68 8 90 12
22 3 49 6 60 7 11 1 25 5 31 8 6 4 33 10 60 13 73 9 93 13 102 19 5 3 19 7 33
10 13 3 34 7 47 10 12 4 31 8 42 10 11 3 24 7 28 10 5 3 19 7 33 10 52 11 87
20 109 29 8 4 26 9 40 11 55 11 71 16 115 35 25 11 45 17 45 14 0 -3 6 -1 13
4 10 9 34 17 72 24 6 1 37 14 70 29 33 15 62 27 65 28 9 1 64 23 99 40 19 10
37 17 40 17 9 0 81 33 144 66 31 17 57 28 57 25 0 -3 43 20 96 51 53 30 104
56 112 57 9 2 18 8 20 14 2 7 8 10 13 6 5 -3 9 0 9 5 0 6 6 11 14 11 7 0 19 7
26 15 7 8 16 12 21 9 5 -3 9 -1 9 3 0 5 44 35 98 67 85 51 175 109 207 134 6
4 26 19 45 32 19 14 42 30 50 37 8 7 33 26 55 43 68 52 84 64 108 85 13 11 43
36 66 55 130 107 436 411 516 512 6 7 52 63 103 125 50 62 92 115 92 118 0 4
50 73 83 115 7 8 23 33 37 55 13 22 32 49 42 59 10 11 43 64 74 118 30 54 60
98 65 98 6 0 7 5 4 10 -3 6 -1 10 5 10 6 0 8 5 5 10 -3 6 -1 10 6 10 7 0 10 3
7 6 -4 3 19 49 49 101 30 53 56 101 57 107 1 7 21 52 45 102 54 111 84 176
106 234 30 77 37 94 52 122 7 15 13 30 13 33 -1 8 16 63 45 145 26 72 30 86
41 139 3 13 9 31 13 40 6 12 30 97 36 131 1 3 4 14 8 25 3 11 8 31 11 45 2 14
9 43 14 65 6 22 13 56 16 75 6 36 12 71 21 118 3 15 10 56 16 92 5 36 12 81
15 100 7 38 10 59 20 167 5 49 10 70 18 66 6 -4 5 1 -3 10 -8 11 -11 29 -7 49
6 33 7 483 2 633 -2 44 -9 125 -15 180 -7 55 -14 116 -16 135 -7 56 -25 169
-41 247 -7 39 -16 87 -19 107 -4 19 -17 73 -29 120 -13 47 -21 88 -18 91 4 3
1 9 -5 13 -6 4 -13 21 -16 38 -3 18 -10 47 -16 65 -5 19 -22 72 -37 119 -24
77 -54 152 -120 298 -13 29 -24 56 -24 61 0 8 -33 84 -87 201 -61 132 -144
290 -220 422 -41 71 -60 102 -124 198 -9 14 -72 109 -102 153 -6 11 -19 27
-27 37 -8 10 -22 28 -30 40 -8 12 -22 30 -30 40 -8 10 -22 28 -30 40 -8 12
-20 28 -25 34 -6 6 -28 33 -50 61 -22 27 -44 55 -50 61 -5 6 -30 35 -55 64
-79 94 -280 299 -382 391 -108 98 -116 104 -158 139 -23 19 -53 44 -66 55 -13
11 -34 28 -47 37 -12 10 -42 33 -67 52 -79 62 -84 66 -115 86 -16 11 -61 42
-100 68 -71 50 -540 327 -553 327 -4 0 -54 23 -112 51 -125 60 -183 87 -190
88 -12 2 -77 29 -102 42 -16 9 -28 13 -28 9 0 -3 -13 1 -30 10 -16 9 -30 13
-30 10 0 -3 -11 2 -25 11 -14 9 -25 13 -25 10 0 -4 -10 -1 -22 6 -13 7 -25 13
-28 13 -27 6 -99 28 -115 35 -11 5 -40 14 -65 20 -25 6 -52 14 -60 17 -17 7
-26 10 -57 17 -13 3 -33 9 -45 12 -13 3 -30 7 -38 9 -8 2 -15 4 -15 5 0 2 -22
7 -60 15 -16 3 -38 8 -47 11 -15 5 -24 7 -80 19 -12 2 -40 7 -63 11 -46 7 -70
12 -70 14 0 3 -38 9 -80 14 -40 5 -88 12 -155 22 -55 9 -88 12 -180 19 -47 4
-105 9 -130 11 -55 6 -507 13 -512 9z m4220 -2640 c-3 -3 -9 2 -12 12 -6 14
-5 15 5 6 7 -7 10 -15 7 -18z m-6578 -30 c25 -4 50 -11 56 -16 7 -5 22 -12 33
-14 12 -2 35 -15 51 -29 16 -13 33 -26 37 -28 22 -9 86 -103 109 -158 22 -55
25 -74 21 -149 -4 -93 -6 -104 -25 -138 -7 -13 -10 -23 -7 -23 8 0 -13 -38
-38 -67 -55 -65 -85 -90 -156 -125 -74 -37 -76 -38 -180 -35 -83 2 -112 7
-133 21 -16 10 -28 15 -28 11 0 -7 -39 16 -68 39 -90 74 -150 183 -156 286 -5
98 27 225 70 270 57 61 104 104 104 95 0 -2 9 3 20 13 12 9 24 16 28 15 4 -1
16 4 28 12 12 7 41 17 65 20 24 4 45 8 47 9 4 4 72 -1 122 -9z m1717 -986 c7
-7 13 -8 13 -5 0 4 9 2 21 -4 11 -6 29 -13 40 -15 21 -4 92 -60 123 -96 10
-12 34 -52 54 -88 34 -63 35 -70 35 -166 0 -55 -3 -110 -6 -121 -13 -49 -59
-124 -104 -168 -49 -49 -116 -90 -127 -79 -3 4 -6 2 -6 -4 0 -18 -79 -32 -164
-29 -89 3 -121 9 -142 27 -8 6 -14 8 -14 5 0 -9 -40 12 -63 33 -62 54 -99 101
-128 159 -30 61 -32 75 -33 162 0 80 4 105 26 157 27 64 34 75 80 123 60 63
152 110 238 122 44 6 143 -2 157 -13z"/>
</g>
</svg>
