<?xml version="1.0" standalone="no"?>
<!DOCTYPE svg PUBLIC "-//W3C//DTD SVG 20010904//EN"
 "http://www.w3.org/TR/2001/REC-SVG-20010904/DTD/svg10.dtd">
<svg version="1.0" xmlns="http://www.w3.org/2000/svg"
 width="1000.000000pt" height="1000.000000pt" viewBox="0 0 1000.000000 1000.000000"
 preserveAspectRatio="xMidYMid meet">
<metadata>
Created by potrace 1.11, written by Peter Selinger 2001-2013
</metadata>
<g transform="translate(0.000000,1000.000000) scale(0.100000,-0.100000)"
fill="#000000" stroke="none">
<path d="M1870 9690 l0 -310 -310 0 -310 0 0 -315 0 -315 -315 0 -315 0 0
-625 0 -625 -310 0 -310 0 0 -1875 0 -1875 310 0 310 0 0 -625 0 -625 315 0
315 0 0 -310 0 -310 310 0 310 0 0 -315 0 -315 315 0 315 0 0 -310 0 -310 625
0 625 0 0 -315 0 -315 1560 0 1560 0 0 315 0 315 625 0 625 0 0 310 0 310 315
0 315 0 0 315 0 315 310 0 310 0 0 625 0 625 315 0 315 0 0 1560 0 1560 -315
0 -315 0 0 625 0 625 -310 0 -310 0 0 315 0 315 -315 0 -315 0 0 310 0 310
-310 0 -310 0 0 315 0 315 -315 0 -315 0 0 -315 0 -315 315 0 315 0 0 -310 0
-310 310 0 310 0 0 -1565 0 -1565 -310 0 -310 0 0 -310 0 -310 -625 0 -625 0
0 1560 0 1560 -315 0 -315 0 0 625 0 625 -310 0 -310 0 0 315 0 315 -315 0
-315 0 0 310 0 310 -1250 0 -1250 0 0 -310z m630 -3435 l0 -625 -625 0 -625 0
0 625 0 625 625 0 625 0 0 -625z m2500 0 l0 -625 -625 0 -625 0 0 625 0 625
625 0 625 0 0 -625z"/>
</g>
</svg>
